<svg width="56" height="56" viewBox="0 0 56 56" fill="none" xmlns="http://www.w3.org/2000/svg">
<path d="M27.6766 44.8563L48.6456 8.68327C49.3941 7.39193 48.9193 5.7676 47.5778 5.03008C46.2604 4.30579 44.5776 4.69721 43.7593 5.91831L20.0953 41.2278C19.2162 42.5396 17.4086 42.96 15.9934 42.1819C14.1166 41.1501 14.3974 39.3114 15.0402 37.6774C15.654 36.1173 14.9934 34.3633 13.4782 33.5303C11.4676 32.425 9.404 33.4342 8.33258 35.2012C5.25548 40.2762 7.82457 47.4949 12.7952 50.2277C18.0855 53.1359 24.7245 49.9488 27.6766 44.8563Z" stroke="white" stroke-width="1.5" stroke-linecap="round" stroke-linejoin="round"/>
<path d="M43.1668 51.3337C46.3885 51.3337 49.0002 48.722 49.0002 45.5003C49.0002 42.2787 46.3885 39.667 43.1668 39.667C39.9452 39.667 37.3335 42.2787 37.3335 45.5003C37.3335 48.722 39.9452 51.3337 43.1668 51.3337Z" stroke="white" stroke-width="1.5" stroke-linejoin="round"/>
<path d="M37.3335 16.333L42.0002 19.833" stroke="white" stroke-width="1.5" stroke-linecap="round" stroke-linejoin="round"/>
</svg>
