<svg width="56" height="56" viewBox="0 0 56 56" fill="none" xmlns="http://www.w3.org/2000/svg">
<path d="M37.3335 23.333L42.3488 24.8375C45.5529 25.7989 47.155 26.2795 48.0776 27.5195C49.0002 28.7594 49.0002 30.4322 49.0002 33.7772V51.333" stroke="white" stroke-width="1.5" stroke-linejoin="round"/>
<path d="M18.6665 21H25.6665M18.6665 30.3333H25.6665" stroke="white" stroke-width="1.5" stroke-linecap="round" stroke-linejoin="round"/>
<path d="M28.0002 51.3337V44.3337C28.0002 42.1338 28.0002 41.0339 27.3167 40.3504C26.6333 39.667 25.5334 39.667 23.3335 39.667H21.0002C18.8003 39.667 17.7003 39.667 17.0169 40.3504C16.3335 41.0339 16.3335 42.1338 16.3335 44.3337V51.3337" stroke="white" stroke-width="1.5" stroke-linejoin="round"/>
<path d="M4.6665 51.333H51.3332" stroke="white" stroke-width="1.5" stroke-linecap="round"/>
<path d="M7 51.3337V15.6739C7 9.81547 7 6.88626 8.84609 5.43289C10.6922 3.97953 13.4106 4.76862 18.8475 6.34676L30.5142 9.73318C33.7951 10.6855 35.4356 11.1617 36.3844 12.4595C37.3333 13.7574 37.3333 15.525 37.3333 19.0603V51.3337" stroke="white" stroke-width="1.5" stroke-linecap="round" stroke-linejoin="round"/>
</svg>
