<svg width="56" height="56" viewBox="0 0 56 56" fill="none" xmlns="http://www.w3.org/2000/svg">
<path d="M27.9998 20.9997C27.9998 10.4997 32.6665 9.33301 37.3332 9.33301C37.3332 16.333 33.8332 20.9997 27.9998 20.9997ZM27.9998 20.9997C27.9998 10.4997 23.3332 9.33301 18.6665 9.33301C18.6665 16.333 22.1665 20.9997 27.9998 20.9997Z" stroke="white" stroke-width="1.5" stroke-linecap="round" stroke-linejoin="round"/>
<path d="M23.3335 9.33366C23.3335 9.33366 24.5002 5.83366 28.0002 4.66699C31.5002 5.83366 32.6668 9.33366 32.6668 9.33366" stroke="white" stroke-width="1.5" stroke-linecap="round" stroke-linejoin="round"/>
<path d="M28 21V35" stroke="white" stroke-width="1.5" stroke-linecap="round" stroke-linejoin="round"/>
<path d="M28 30.3337C28.5833 28.778 30.8 25.667 35 25.667" stroke="white" stroke-width="1.5" stroke-linecap="round" stroke-linejoin="round"/>
<path d="M30.6856 35H25.3147C20.5259 35 18.1315 35 16.9497 36.3923C15.768 37.7846 16.4258 39.8307 17.7414 43.9231L17.9599 44.6026C18.9952 47.8228 19.5128 49.4328 20.8916 50.3715L20.9534 50.4128C22.3477 51.3333 24.2318 51.3333 28.0002 51.3333C31.7685 51.3333 33.6527 51.3333 35.0468 50.4128L35.1087 50.3715C36.4877 49.4328 37.0052 47.8228 38.0405 44.6026L38.2589 43.9231C39.5744 39.8307 40.2322 37.7846 39.0506 36.3923C37.8688 35 35.4745 35 30.6856 35Z" stroke="white" stroke-width="1.5" stroke-linecap="round" stroke-linejoin="round"/>
</svg>
