<svg width="57" height="56" viewBox="0 0 57 56" fill="none" xmlns="http://www.w3.org/2000/svg">
<path d="M51.8332 48.9997H49.4998C46.1132 48.9997 43.1485 46.9956 42.4998 44.333C41.8512 46.9956 38.8864 48.9997 35.4998 48.9997C32.1132 48.9997 29.1485 46.9956 28.4998 44.333C27.8512 46.9956 24.8864 48.9997 21.4998 48.9997C18.1133 48.9997 15.1484 46.9956 14.4998 44.333C13.8513 46.9956 10.8864 48.9997 7.49984 48.9997H5.1665" stroke="white" stroke-width="1.5" stroke-linecap="round" stroke-linejoin="round"/>
<path d="M44.8335 7L44.2154 7.20603C41.1354 8.23275 39.5952 8.74608 38.7143 9.96823C37.8335 11.1904 37.8335 12.8137 37.8335 16.0604V39.6667" stroke="white" stroke-width="1.5" stroke-linecap="round" stroke-linejoin="round"/>
<path d="M26.1665 7L25.5484 7.20603C22.4683 8.23275 20.9282 8.74608 20.0474 9.96823C19.1665 11.1904 19.1665 12.8137 19.1665 16.0604V39.6667" stroke="white" stroke-width="1.5" stroke-linecap="round" stroke-linejoin="round"/>
<path d="M19.1665 16.333H37.8332M19.1665 25.6663H37.8332M19.1665 34.9997H37.8332" stroke="white" stroke-width="1.5" stroke-linecap="round" stroke-linejoin="round"/>
</svg>
