<svg width="56" height="56" viewBox="0 0 56 56" fill="none" xmlns="http://www.w3.org/2000/svg">
<path d="M51.3332 49V22.4248C51.3332 19.338 51.3332 17.7946 50.5307 16.5992C49.7285 15.4039 48.3078 14.8307 45.4662 13.6843L31.4662 8.03591C29.7545 7.34531 28.8986 7 27.9998 7C27.101 7 26.2452 7.34531 24.5334 8.03591L10.5335 13.6843C7.69197 14.8307 6.27121 15.4039 5.46887 16.5992C4.6665 17.7946 4.6665 19.338 4.6665 22.4248V49" stroke="white" stroke-width="1.5" stroke-linecap="round" stroke-linejoin="round"/>
<path d="M37.3332 44.333V48.9997M18.6665 44.333V48.9997" stroke="white" stroke-width="1.5" stroke-linecap="round" stroke-linejoin="round"/>
<path d="M17.5 32.6663L18.0659 30.4028C18.9147 27.0073 19.3392 25.3098 20.605 24.3214C21.8709 23.333 23.6208 23.333 27.1206 23.333H28.8794C32.3792 23.333 34.129 23.333 35.395 24.3214C36.6609 25.3098 37.0853 27.0073 37.9342 30.4028L38.5 32.6663" stroke="white" stroke-width="1.5" stroke-linecap="round" stroke-linejoin="round"/>
<path d="M39.6667 32.667H16.3333C15.0447 32.667 14 33.7116 14 35.0003V42.0003C14 43.289 15.0447 44.3337 16.3333 44.3337H39.6667C40.9554 44.3337 42 43.289 42 42.0003V35.0003C42 33.7116 40.9554 32.667 39.6667 32.667Z" stroke="white" stroke-width="1.5" stroke-linecap="round" stroke-linejoin="round"/>
<path d="M19.8335 38.4766V38.4999" stroke="white" stroke-width="1.5" stroke-linecap="round" stroke-linejoin="round"/>
<path d="M36.1665 38.4766V38.4999" stroke="white" stroke-width="1.5" stroke-linecap="round" stroke-linejoin="round"/>
</svg>
