<svg width="56" height="56" viewBox="0 0 56 56" fill="none" xmlns="http://www.w3.org/2000/svg">
<path d="M42 7V18.6667M14 7V18.6667" stroke="white" stroke-width="1.5" stroke-linecap="round" stroke-linejoin="round"/>
<path d="M47.8332 9.33301V12.833M47.8332 12.833V16.333M47.8332 12.833H51.3332M8.1665 9.33301V12.833M8.1665 12.833V16.333M8.1665 12.833H4.6665" stroke="white" stroke-width="1.5" stroke-linecap="round" stroke-linejoin="round"/>
<path d="M42 12.833H14" stroke="white" stroke-width="1.5" stroke-linecap="round" stroke-linejoin="round"/>
<path d="M16.9784 44.333H39.0213C41.9088 44.333 43.3525 44.333 43.9496 43.6269C45.3045 42.0246 42.7087 39.9069 41.7616 38.8394C40.6943 37.6368 39.9136 37.333 38.3363 37.333H17.6635C16.086 37.333 15.3054 37.6368 14.2382 38.8394C13.2909 39.9069 10.6952 42.0246 12.0502 43.6269C12.6471 44.333 14.0909 44.333 16.9784 44.333Z" stroke="white" stroke-width="1.5" stroke-linecap="round" stroke-linejoin="round"/>
<path d="M21 18.667V37.3337M35 18.667V37.3337" stroke="white" stroke-width="1.5" stroke-linecap="round" stroke-linejoin="round"/>
<path d="M37.3332 44.333V48.9997M18.6665 44.333V48.9997" stroke="white" stroke-width="1.5" stroke-linecap="round" stroke-linejoin="round"/>
</svg>
