<svg width="12" height="24" viewBox="0 0 12 24" fill="none" xmlns="http://www.w3.org/2000/svg">
<path d="M4.237 0.736999C4.698 0.27 5.335 0.00600029 6 -2.60379e-07C6.658 0.00200052 7.296 0.258001 7.766 0.721L11.847 4.639C11.949 4.737 12 4.868 12 5C12 5.125 11.954 5.25 11.86 5.346C11.67 5.545 11.352 5.552 11.153 5.361L7.067 1.438C6.902 1.275 6.709 1.155 6.5 1.083L6.5 23.5C6.5 23.776 6.276 24 6 24C5.724 24 5.5 23.776 5.5 23.5L5.5 1.089C5.292 1.164 5.102 1.285 4.942 1.447L0.891997 5.402C0.694997 5.595 0.377997 5.591 0.184997 5.393C-0.00700324 5.195 -0.00400342 4.879 0.193997 4.686L4.237 0.738001L4.237 0.736999Z" fill="#0D0D0C"/>
</svg>
