<svg width="20" height="21" viewBox="0 0 20 21" fill="none" xmlns="http://www.w3.org/2000/svg">
<path d="M15 2.16675V3.83341M5 2.16675V3.83341" stroke="#1C2D37" stroke-width="1.5" stroke-linecap="round" stroke-linejoin="round"/>
<path d="M9.9956 11.3333H10.0031M9.9956 14.6666H10.0031M13.3252 11.3333H13.3327M6.66602 11.3333H6.67349M6.66602 14.6666H6.67349" stroke="#1C2D37" stroke-width="1.5" stroke-linecap="round" stroke-linejoin="round"/>
<path d="M2.91602 7.16675H17.0827" stroke="#1C2D37" stroke-width="1.5" stroke-linecap="round" stroke-linejoin="round"/>
<path d="M2.08398 10.7027C2.08398 7.07162 2.08398 5.25607 3.12742 4.12803C4.17085 3 5.85023 3 9.20898 3H10.7923C14.1511 3 15.8305 3 16.8739 4.12803C17.9173 5.25607 17.9173 7.07162 17.9173 10.7027V11.1307C17.9173 14.7618 17.9173 16.5773 16.8739 17.7053C15.8305 18.8333 14.1511 18.8333 10.7923 18.8333H9.20898C5.85023 18.8333 4.17085 18.8333 3.12742 17.7053C2.08398 16.5773 2.08398 14.7618 2.08398 11.1307V10.7027Z" stroke="#1C2D37" stroke-width="1.5" stroke-linecap="round" stroke-linejoin="round"/>
<path d="M2.5 7.16675H17.5" stroke="#1C2D37" stroke-width="1.5" stroke-linecap="round" stroke-linejoin="round"/>
</svg>
