<svg width="20" height="21" viewBox="0 0 20 21" fill="none" xmlns="http://www.w3.org/2000/svg">
<path d="M16.666 8.00008C16.0033 4.67887 12.9267 2.16675 9.2321 2.16675C5.05392 2.16675 1.66602 5.37942 1.66602 9.34175C1.66602 11.2456 2.44784 12.9754 3.72314 14.2591C4.00392 14.5417 4.19139 14.9279 4.11573 15.3253C3.99087 15.9752 3.7079 16.5813 3.29356 17.0865C4.38371 17.2875 5.51724 17.1065 6.48936 16.594C6.83301 16.4129 7.00482 16.3223 7.12607 16.3039C7.21095 16.2911 7.32151 16.3031 7.49935 16.3336" stroke="#1C2D37" stroke-width="1.5" stroke-linecap="round" stroke-linejoin="round"/>
<path d="M9.16602 14.0515C9.16602 16.4729 11.2183 18.4362 13.7493 18.4362C14.0469 18.4366 14.3437 18.4091 14.636 18.3542C14.8464 18.3147 14.9517 18.2949 15.0251 18.3062C15.0985 18.3173 15.2027 18.3727 15.4108 18.4834C15.9997 18.7966 16.6863 18.9072 17.3468 18.7843C17.0958 18.4757 16.9243 18.1052 16.8487 17.7081C16.8028 17.4652 16.9164 17.2292 17.0865 17.0565C17.8591 16.272 18.3327 15.2149 18.3327 14.0515C18.3327 11.6301 16.2803 9.66675 13.7493 9.66675C11.2183 9.66675 9.16602 11.6301 9.16602 14.0515Z" stroke="#1C2D37" stroke-width="1.5" stroke-linejoin="round"/>
</svg>
