<svg width="19" height="16" viewBox="0 0 19 16" fill="none" xmlns="http://www.w3.org/2000/svg">
<path d="M5.16699 5.16602L7.61868 6.61552C9.04799 7.4606 9.61933 7.4606 11.0487 6.61552L13.5003 5.16602" stroke="#1C2D37" stroke-width="1.5" stroke-linecap="round" stroke-linejoin="round"/>
<path d="M1.01314 9.313C1.06762 11.8677 1.09486 13.1449 2.03747 14.0912C2.98007 15.0373 4.29194 15.0703 6.91569 15.1362C8.53275 15.1768 10.1339 15.1768 11.751 15.1362C14.3748 15.0703 15.6866 15.0373 16.6293 14.0912C17.5718 13.1449 17.5991 11.8677 17.6535 9.313C17.6711 8.49158 17.6711 7.67508 17.6535 6.85367C17.5991 4.29905 17.5718 3.02174 16.6293 2.07555C15.6866 1.12936 14.3748 1.0964 11.751 1.03048C10.1339 0.989843 8.53275 0.989843 6.91568 1.03047C4.29194 1.09638 2.98007 1.12934 2.03746 2.07554C1.09485 3.02173 1.06762 4.29904 1.01313 6.85367C0.995617 7.67508 0.995625 8.49158 1.01314 9.313Z" stroke="#1C2D37" stroke-width="1.5" stroke-linejoin="round"/>
</svg>
