<svg width="18" height="20" viewBox="0 0 18 20" fill="none" xmlns="http://www.w3.org/2000/svg">
<path d="M11.9167 9.16667C11.9167 10.7775 10.6109 12.0833 9.00004 12.0833C7.38921 12.0833 6.08337 10.7775 6.08337 9.16667C6.08337 7.55583 7.38921 6.25 9.00004 6.25C10.6109 6.25 11.9167 7.55583 11.9167 9.16667Z" stroke="#1C2D37" stroke-width="1.5"/>
<path d="M9 1.66699C13.0588 1.66699 16.5 5.02781 16.5 9.10516C16.5 13.2474 13.0027 16.1542 9.7725 18.1309C9.53708 18.2638 9.27083 18.3337 9 18.3337C8.72917 18.3337 8.46292 18.2638 8.2275 18.1309C5.00325 16.135 1.5 13.2617 1.5 9.10516C1.5 5.02781 4.9412 1.66699 9 1.66699Z" stroke="#1C2D37" stroke-width="1.5"/>
</svg>
