<svg width="16" height="16" viewBox="0 0 16 16" fill="none" xmlns="http://www.w3.org/2000/svg">
<path d="M2.51845 7.96128C1.88644 6.85921 1.58127 5.95933 1.39727 5.04715C1.12512 3.69806 1.74791 2.38022 2.77963 1.53932C3.21567 1.18393 3.71553 1.30536 3.97337 1.76794L4.55549 2.81228C5.0169 3.64006 5.2476 4.05394 5.20184 4.49274C5.15609 4.93154 4.84495 5.28892 4.22269 6.00368L2.51845 7.96128ZM2.51845 7.96128C3.79771 10.1919 5.80527 12.2005 8.03844 13.4813M8.03844 13.4813C9.14051 14.1133 10.0404 14.4185 10.9526 14.6025C12.3016 14.8746 13.6195 14.2518 14.4604 13.2201C14.8158 12.7841 14.6944 12.2842 14.2318 12.0263L13.1874 11.4442C12.3596 10.9828 11.9458 10.7521 11.507 10.7979C11.0682 10.8436 10.7108 11.1547 9.99604 11.777L8.03844 13.4813Z" stroke="#0D0D0C" stroke-width="1.5" stroke-linejoin="round"/>
<path d="M9.33337 4.55424C10.2822 4.95717 11.0426 5.71752 11.4455 6.66634M9.76937 1.33301C12.1275 2.01351 13.9861 3.87202 14.6667 6.23009" stroke="#0D0D0C" stroke-width="1.5" stroke-linecap="round"/>
</svg>
