<svg width="40" height="40" viewBox="0 0 40 40" fill="none" xmlns="http://www.w3.org/2000/svg">
<path d="M11.666 15L19.6172 7.8919C21.7738 5.96397 22.8522 5 24.166 5C25.4798 5 26.5582 5.96397 28.7148 7.8919L36.666 15" stroke="white" stroke-width="1.5" stroke-linecap="round" stroke-linejoin="round"/>
<path d="M14.166 13.3333V33.3333M34.166 33.3333V13.3333" stroke="white" stroke-width="1.5" stroke-linecap="round" stroke-linejoin="round"/>
<path d="M5.83398 23.3334C7.2147 23.3334 8.33398 21.841 8.33398 20.0001C8.33398 18.1591 7.2147 16.6667 5.83398 16.6667C4.45327 16.6667 3.33398 18.1591 3.33398 20.0001C3.33398 21.841 4.45327 23.3334 5.83398 23.3334Z" stroke="white" stroke-width="1.5"/>
<path d="M5.83398 23.3333V33.3333" stroke="white" stroke-width="1.5" stroke-linecap="round"/>
<path d="M3.33398 33.3333H36.6673" stroke="white" stroke-width="1.5" stroke-linecap="round" stroke-linejoin="round"/>
<path d="M20 33.3333V26.6661C20 25.0951 20 24.3096 20.4882 23.8214C20.9763 23.3333 21.762 23.3333 23.3333 23.3333H25C26.5713 23.3333 27.357 23.3333 27.8452 23.8214C28.3333 24.3096 28.3333 25.0953 28.3333 26.6666V33.3333" stroke="white" stroke-width="1.5" stroke-linecap="round" stroke-linejoin="round"/>
<path d="M22.5 18.3333H25.8333M22.5 13.3333H25.8333" stroke="white" stroke-width="1.5" stroke-linecap="round" stroke-linejoin="round"/>
</svg>
