<svg width="24" height="40" viewBox="0 0 24 40" fill="none" xmlns="http://www.w3.org/2000/svg">
<path d="M11 3.33325V23.3333C11 28.8488 10.3093 29.9999 7 29.9999H3" stroke="white" stroke-width="1.5" stroke-linejoin="round"/>
<path d="M5 20H11" stroke="white" stroke-width="1.5" stroke-linejoin="round"/>
<path d="M17.5 26.6667H18.5M17.5 31.6667H18.5" stroke="white" stroke-width="1.5" stroke-linecap="round" stroke-linejoin="round"/>
<path d="M14 8.33325V36.6666H4.279C3.03789 36.6666 2.41734 36.6666 2.13134 35.9576C1.84534 35.2486 2.05611 34.2328 2.47764 32.2011L7.78212 6.63504C8.11324 5.03909 8.27881 4.24112 8.65029 3.78719C9.02177 3.33325 9.50923 3.33325 10.4842 3.33325H11.1272C12.4814 3.33325 13.1586 3.33325 13.5793 4.06549C14 4.79772 14 5.97624 14 8.33325Z" stroke="white" stroke-width="1.5" stroke-linecap="round" stroke-linejoin="round"/>
<path d="M14 16.6667L17.7897 18.6406C19.8193 19.6976 20.8341 20.2262 21.4171 21.5477C22 22.8692 22 24.6412 22 28.1853V33.3334C22 34.9048 22 35.6904 21.7071 36.1786C21.4142 36.6668 20.9428 36.6668 20 36.6668H14" stroke="white" stroke-width="1.5" stroke-linecap="round" stroke-linejoin="round"/>
</svg>
