<svg width="40" height="40" viewBox="0 0 40 40" fill="none" xmlns="http://www.w3.org/2000/svg">
<path d="M26.666 16.6667L30.2484 17.7414C32.537 18.4281 33.6814 18.7714 34.3404 19.6571C34.9994 20.5427 34.9993 21.7376 34.9993 24.1269V36.6668" stroke="white" stroke-width="1.5" stroke-linejoin="round"/>
<path d="M13.334 15H18.334M13.334 21.6667H18.334" stroke="white" stroke-width="1.5" stroke-linecap="round" stroke-linejoin="round"/>
<path d="M19.9993 36.6666V31.6666C19.9993 30.0953 19.9993 29.3096 19.5112 28.8214C19.023 28.3333 18.2373 28.3333 16.666 28.3333H14.9993C13.428 28.3333 12.6423 28.3333 12.1542 28.8214C11.666 29.3096 11.666 30.0953 11.666 31.6666V36.6666" stroke="white" stroke-width="1.5" stroke-linejoin="round"/>
<path d="M3.33398 36.6667H36.6673" stroke="white" stroke-width="1.5" stroke-linecap="round"/>
<path d="M5 36.6666V11.1953C5 7.01074 5 4.91844 6.31863 3.88032C7.63728 2.84221 9.57903 3.40584 13.4625 4.53309L21.7958 6.95196C24.1393 7.63221 25.3112 7.97232 25.9888 8.89934C26.6667 9.82637 26.6667 11.089 26.6667 13.6142V36.6666" stroke="white" stroke-width="1.5" stroke-linecap="round" stroke-linejoin="round"/>
</svg>
