<svg width="24" height="24" viewBox="0 0 24 24" fill="none" xmlns="http://www.w3.org/2000/svg">
<path d="M17.25 2.25C17.25 1.85218 17.408 1.47064 17.6893 1.18934C17.9706 0.908035 18.3522 0.75 18.75 0.75H21.75C22.1478 0.75 22.5294 0.908035 22.8107 1.18934C23.092 1.47064 23.25 1.85218 23.25 2.25V6.75C23.25 7.14782 23.092 7.52936 22.8107 7.81066C22.5294 8.09196 22.1478 8.25 21.75 8.25H21V22.5C21 22.6989 20.921 22.8897 20.7803 23.0303C20.6397 23.171 20.4489 23.25 20.25 23.25C20.0511 23.25 19.8603 23.171 19.7197 23.0303C19.579 22.8897 19.5 22.6989 19.5 22.5V8.25H18.75C18.3522 8.25 17.9706 8.09196 17.6893 7.81066C17.408 7.52936 17.25 7.14782 17.25 6.75V2.25ZM16.125 2.25H7.80525C7.12267 2.24995 6.46048 2.48267 5.92801 2.90973C5.39554 3.3368 5.02462 3.93269 4.8765 4.599L4.398 6.75H3.75C3.55109 6.75 3.36032 6.82902 3.21967 6.96967C3.07902 7.11032 3 7.30109 3 7.5C3 7.69891 3.07902 7.88968 3.21967 8.03033C3.36032 8.17098 3.55109 8.25 3.75 8.25H4.065L3.8175 9.36375C3.34322 9.6215 2.94727 10.0024 2.67139 10.4664C2.39552 10.9304 2.24994 11.4602 2.25 12V19.5C2.25 20.0967 2.48705 20.669 2.90901 21.091C3.33097 21.5129 3.90326 21.75 4.5 21.75H5.25C5.84674 21.75 6.41903 21.5129 6.84099 21.091C7.26295 20.669 7.5 20.0967 7.5 19.5V18.75H16.5V19.5C16.4998 20.0318 16.6881 20.5466 17.0313 20.9528C17.3745 21.3591 17.8506 21.6306 18.375 21.7192V20.1495C18.261 20.0837 18.1663 19.989 18.1005 19.875C18.0347 19.761 18 19.6316 18 19.5V18.75H18.375V17.25H3.75V12C3.75 11.6022 3.90804 11.2206 4.18934 10.9393C4.47064 10.658 4.85218 10.5 5.25 10.5H18.375V9.34875C18.0289 9.29917 17.6964 9.18058 17.397 9H5.4345L6.3405 4.9245C6.41455 4.59141 6.59995 4.29351 6.86611 4.07998C7.13227 3.86646 7.46327 3.75006 7.8045 3.75H16.125V2.25ZM3.75 19.5V18.75H6V19.5C6 19.6989 5.92098 19.8897 5.78033 20.0303C5.63968 20.171 5.44891 20.25 5.25 20.25H4.5C4.30109 20.25 4.11032 20.171 3.96967 20.0303C3.82902 19.8897 3.75 19.6989 3.75 19.5ZM9.375 15C9.375 14.8011 9.45402 14.6103 9.59467 14.4697C9.73532 14.329 9.92609 14.25 10.125 14.25H13.875C14.0739 14.25 14.2647 14.329 14.4053 14.4697C14.546 14.6103 14.625 14.8011 14.625 15C14.625 15.1989 14.546 15.3897 14.4053 15.5303C14.2647 15.671 14.0739 15.75 13.875 15.75H10.125C9.92609 15.75 9.73532 15.671 9.59467 15.5303C9.45402 15.3897 9.375 15.1989 9.375 15ZM7.125 14.25C7.42337 14.25 7.70952 14.1315 7.9205 13.9205C8.13147 13.7095 8.25 13.4234 8.25 13.125C8.25 12.8266 8.13147 12.5405 7.9205 12.3295C7.70952 12.1185 7.42337 12 7.125 12C6.82663 12 6.54048 12.1185 6.3295 12.3295C6.11853 12.5405 6 12.8266 6 13.125C6 13.4234 6.11853 13.7095 6.3295 13.9205C6.54048 14.1315 6.82663 14.25 7.125 14.25ZM18 13.125C18 13.4234 17.8815 13.7095 17.6705 13.9205C17.4595 14.1315 17.1734 14.25 16.875 14.25C16.5766 14.25 16.2905 14.1315 16.0795 13.9205C15.8685 13.7095 15.75 13.4234 15.75 13.125C15.75 12.8266 15.8685 12.5405 16.0795 12.3295C16.2905 12.1185 16.5766 12 16.875 12C17.1734 12 17.4595 12.1185 17.6705 12.3295C17.8815 12.5405 18 12.8266 18 13.125Z" fill="#A4B5BA"/>
</svg>
