<svg width="33" height="32" viewBox="0 0 33 32" fill="none" xmlns="http://www.w3.org/2000/svg">
<path d="M8.50033 26.6665L7.16699 27.9998M24.5003 26.6665L25.8337 27.9998" stroke="#1C2D37" stroke-width="1.5" stroke-linecap="round"/>
<path d="M4.5 16V17.3333C4.5 21.7331 4.5 23.9329 5.86684 25.2999C7.23367 26.6667 9.43356 26.6667 13.8333 26.6667H19.1667C23.5664 26.6667 25.7663 26.6667 27.1332 25.2999C28.5 23.9329 28.5 21.7331 28.5 17.3333V16" stroke="#1C2D37" stroke-width="1.5" stroke-linecap="round" stroke-linejoin="round"/>
<path d="M3.16699 16H29.8337" stroke="#1C2D37" stroke-width="1.5" stroke-linecap="round"/>
<path d="M5.83301 16V7.36453C5.83301 5.50636 7.33937 4 9.19754 4C10.6886 4 12.0017 4.98131 12.4242 6.41121L12.4997 6.66667" stroke="#1C2D37" stroke-width="1.5" stroke-linecap="round"/>
<path d="M11.167 8.00016L14.5003 5.3335" stroke="#1C2D37" stroke-width="1.5" stroke-linecap="round"/>
</svg>
