<svg width="32" height="32" viewBox="0 0 32 32" fill="none" xmlns="http://www.w3.org/2000/svg">
<path d="M22.0194 22.02C22.7858 21.2536 22.6585 17.9978 22.6585 17.9978M22.0194 22.02C21.253 22.7864 17.9971 22.6588 17.9971 22.6588M22.0194 22.02L17.333 17.3335M9.97975 9.98033C10.7462 9.21391 14.0021 9.34145 14.0021 9.34145M9.97975 9.98033C9.21334 10.7467 9.34098 14.0026 9.34098 14.0026M9.97975 9.98033L14.6663 14.6668" stroke="#1C2D37" stroke-width="1.5" stroke-linecap="round" stroke-linejoin="round"/>
<path d="M3.33301 16.0002C3.33301 10.029 3.33301 7.04348 5.18799 5.18848C7.04299 3.3335 10.0286 3.3335 15.9997 3.3335C21.9707 3.3335 24.9563 3.3335 26.8114 5.18848C28.6663 7.04348 28.6663 10.029 28.6663 16.0002C28.6663 21.9712 28.6663 24.9568 26.8114 26.8119C24.9563 28.6668 21.9707 28.6668 15.9997 28.6668C10.0286 28.6668 7.04299 28.6668 5.18799 26.8119C3.33301 24.9568 3.33301 21.9712 3.33301 16.0002Z" stroke="#1C2D37" stroke-width="1.5"/>
</svg>
