<svg width="30" height="22" viewBox="0 0 30 22" fill="none" xmlns="http://www.w3.org/2000/svg">
<path d="M11.667 10.9997H3.33366C2.89163 10.9997 2.46771 10.8241 2.15515 10.5115C1.84259 10.199 1.66699 9.77503 1.66699 9.33301V3.49967C1.66699 3.05765 1.84259 2.63372 2.15515 2.32116C2.46771 2.0086 2.89163 1.83301 3.33366 1.83301H10.0003C10.4424 1.83301 10.8663 2.0086 11.1788 2.32116C11.4914 2.63372 11.667 3.05765 11.667 3.49967V10.9997ZM11.667 10.9997C11.667 15.1663 10.0003 17.6663 5.00033 20.1663M28.3337 10.9997H20.0003C19.5583 10.9997 19.1344 10.8241 18.8218 10.5115C18.5093 10.199 18.3337 9.77503 18.3337 9.33301V3.49967C18.3337 3.05765 18.5093 2.63372 18.8218 2.32116C19.1344 2.0086 19.5583 1.83301 20.0003 1.83301H26.667C27.109 1.83301 27.5329 2.0086 27.8455 2.32116C28.1581 2.63372 28.3337 3.05765 28.3337 3.49967V10.9997ZM28.3337 10.9997C28.3337 15.1663 26.667 17.6663 21.667 20.1663" stroke="#676872" stroke-width="2" stroke-linecap="round"/>
</svg>
