<svg width="116" height="93" viewBox="0 0 116 93" fill="none" xmlns="http://www.w3.org/2000/svg">
<path d="M46.3333 23.6667C46.3333 34.3518 46.3333 39.6943 43.0139 43.0138C39.6944 46.3333 34.3518 46.3333 23.6667 46.3333C12.9815 46.3333 7.6389 46.3333 4.31948 43.0138C1 39.6943 1 34.3518 1 23.6667C1 12.9815 1 7.6389 4.31948 4.31948C7.6389 1 12.9815 1 23.6667 1C34.3518 1 39.6944 1 43.0139 4.31948C46.3333 7.6389 46.3333 12.9815 46.3333 23.6667Z" stroke="#8A9AA0" stroke-width="1.5"/>
<path d="M46.333 18V43.3986C46.333 65.91 32.0773 85.001 12.333 91.6667" stroke="#8A9AA0" stroke-width="1.5" stroke-linecap="round"/>
<path d="M114.333 23.6667C114.333 34.3518 114.333 39.6943 111.014 43.0138C107.694 46.3333 102.352 46.3333 91.6667 46.3333C80.9816 46.3333 75.6391 46.3333 72.3195 43.0138C69 39.6943 69 34.3518 69 23.6667C69 12.9815 69 7.6389 72.3195 4.31948C75.6391 1 80.9816 1 91.6667 1C102.352 1 107.694 1 111.014 4.31948C114.333 7.6389 114.333 12.9815 114.333 23.6667Z" stroke="#8A9AA0" stroke-width="1.5"/>
<path d="M114.333 18V43.3986C114.333 65.91 100.077 85.001 80.333 91.6667" stroke="#8A9AA0" stroke-width="1.5" stroke-linecap="round"/>
</svg>
