<svg width="40" height="40" viewBox="0 0 40 40" fill="none" xmlns="http://www.w3.org/2000/svg">
<path d="M11.6665 15L19.6177 7.8919C21.7743 5.96397 22.8527 5 24.1665 5C25.4803 5 26.5587 5.96397 28.7153 7.8919L36.6665 15" stroke="#364436" stroke-width="2" stroke-linecap="round" stroke-linejoin="round"/>
<path d="M14.1665 13.3335V33.3335M34.1665 33.3335V13.3335" stroke="#364436" stroke-width="2" stroke-linecap="round" stroke-linejoin="round"/>
<path d="M5.8335 23.3332C7.21421 23.3332 8.3335 21.8408 8.3335 19.9998C8.3335 18.1589 7.21421 16.6665 5.8335 16.6665C4.45278 16.6665 3.3335 18.1589 3.3335 19.9998C3.3335 21.8408 4.45278 23.3332 5.8335 23.3332Z" stroke="#364436" stroke-width="2"/>
<path d="M5.8335 23.3335V33.3335" stroke="#364436" stroke-width="2" stroke-linecap="round"/>
<path d="M3.3335 33.3335H36.6668" stroke="#364436" stroke-width="2" stroke-linecap="round" stroke-linejoin="round"/>
<path d="M20 33.3335V26.6663C20 25.0953 20 24.3098 20.4882 23.8217C20.9763 23.3335 21.762 23.3335 23.3333 23.3335H25C26.5713 23.3335 27.357 23.3335 27.8452 23.8217C28.3333 24.3098 28.3333 25.0955 28.3333 26.6668V33.3335" stroke="#364436" stroke-width="2" stroke-linecap="round" stroke-linejoin="round"/>
<path d="M22.5 18.3335H25.8333M22.5 13.3335H25.8333" stroke="#364436" stroke-width="2" stroke-linecap="round" stroke-linejoin="round"/>
</svg>
