<svg width="40" height="40" viewBox="0 0 40 40" fill="none" xmlns="http://www.w3.org/2000/svg">
<g clip-path="url(#clip0_912_13943)">
<path d="M36.0903 31.1018C36.8804 30.0154 37.3086 28.7079 37.3143 27.3645C37.3228 27.1879 37.2608 27.0151 37.1419 26.8842C37.023 26.7533 36.8569 26.675 36.6803 26.6665C36.3139 26.6528 36.0038 26.9345 35.9823 27.3005C35.9873 28.3652 35.6593 29.4048 35.0443 30.2738C33.7436 31.9165 31.2756 31.9998 30.7936 31.9998C30.4254 31.9998 30.127 32.2983 30.127 32.6665C30.127 33.0347 30.4254 33.3332 30.7936 33.3332C31.383 33.3332 34.4076 33.2258 36.0903 31.1018Z" fill="#1C2D37"/>
<path d="M22.6663 22.6665C22.6663 22.2983 22.3679 21.9998 21.9997 21.9998C21.6315 21.9998 21.333 22.2983 21.333 22.6665C21.333 24.1393 22.5269 25.3332 23.9997 25.3332V25.9998C23.9997 26.368 24.2982 26.6665 24.6663 26.6665C25.0345 26.6665 25.333 26.368 25.333 25.9998V25.3332C26.8058 25.3332 27.9997 24.1393 27.9997 22.6665C27.9997 21.1937 26.8058 19.9998 25.333 19.9998V17.3332C26.0694 17.3332 26.6663 17.9301 26.6663 18.6665C26.6663 19.0347 26.9648 19.3332 27.333 19.3332C27.7012 19.3332 27.9997 19.0347 27.9997 18.6665C27.9997 17.1937 26.8058 15.9998 25.333 15.9998V15.3332C25.333 14.965 25.0345 14.6665 24.6663 14.6665C24.2982 14.6665 23.9997 14.965 23.9997 15.3332V15.9998C22.5269 15.9998 21.333 17.1937 21.333 18.6665C21.333 20.1393 22.5269 21.3332 23.9997 21.3332V23.9998C23.2633 23.9998 22.6663 23.4029 22.6663 22.6665ZM22.6663 18.6665C22.6663 17.9301 23.2633 17.3332 23.9997 17.3332V19.9998C23.2633 19.9998 22.6663 19.4029 22.6663 18.6665ZM25.333 21.3332C26.0694 21.3332 26.6663 21.9301 26.6663 22.6665C26.6663 23.4029 26.0694 23.9998 25.333 23.9998V21.3332Z" fill="#1C2D37"/>
<path d="M39.4427 22.514C37.8 15.5333 34.148 11.4887 31.5107 9.37601C34.818 9.62534 35.8827 11.0013 35.914 11.0427C36.1229 11.3408 36.5323 11.4163 36.8337 11.2123C37.1352 11.0082 37.2172 10.6 37.018 10.2953C36.97 10.2233 36.044 8.90068 33.3513 8.29534C34.0399 7.72933 34.4472 6.8911 34.4667 6.00001C34.3775 4.52264 33.349 3.26986 31.9173 2.89468C31.976 2.41311 32.0059 1.92847 32.0067 1.44334C32.006 0.996409 31.7814 0.579561 31.4085 0.333134C31.0356 0.0867063 30.5641 0.0434806 30.1527 0.218009C29.8161 0.370393 29.5035 0.570938 29.2247 0.813342C28.8975 1.14956 28.4471 1.33742 27.978 1.33334C27.5096 1.33664 27.0602 1.14886 26.7333 0.813342C25.5584 -0.271765 23.7469 -0.271765 22.572 0.813342C22.2448 1.15029 21.7937 1.33825 21.324 1.33334C20.8557 1.33723 20.4062 1.14934 20.08 0.813342C19.8019 0.571458 19.4902 0.371154 19.1547 0.218676C18.7435 0.045317 18.2729 0.089133 17.9008 0.335414C17.5287 0.581695 17.3044 0.997788 17.3033 1.44401C17.3033 3.10268 17.6313 6.06134 19.708 8.04801C18.6166 8.71164 17.5973 9.48716 16.6667 10.362V5.33334C16.6667 3.81334 14.5167 2.66668 11.6667 2.66668C8.81667 2.66668 6.66667 3.81334 6.66667 5.33334V12.05C4.32867 12.2833 2.66667 13.3333 2.66667 14.6667V31.6233C1.056 32.056 0 32.9333 0 34V37.3333C0 38.8533 2.15 40 5 40C7.54867 40 9.53333 39.082 9.92467 37.8C11.0754 38.4093 12.3652 38.708 13.6667 38.6667C16.5167 38.6667 18.6667 37.52 18.6667 36V27.3333C18.6667 25.8133 16.5167 24.6667 13.6667 24.6667C13.3327 24.6665 12.9989 24.6831 12.6667 24.7167V14.6667C12.6667 13.2067 10.682 12.0947 8 12.0087V7.17934C9.13415 7.7558 10.395 8.038 11.6667 8.00001C12.9383 8.038 14.1992 7.7558 15.3333 7.17934V11.726C14.894 12.2173 14.4527 12.7527 14.0173 13.346C13.818 13.6429 13.8883 14.0441 14.1768 14.2555C14.4652 14.4668 14.869 14.4129 15.092 14.1333C15.5202 13.5537 15.9791 12.9973 16.4667 12.4667C16.472 12.4607 16.4767 12.4547 16.482 12.4493C17.7546 11.035 19.2491 9.83733 20.9067 8.90334C21.2335 9.06098 21.5792 9.17593 21.9353 9.24534L20.2167 10.8493C19.9475 11.1008 19.9332 11.5229 20.1847 11.792C20.4361 12.0612 20.8582 12.0755 21.1273 11.824L23.794 9.33668H24.0067V11.3367C24.0067 11.7049 24.3051 12.0033 24.6733 12.0033C25.0415 12.0033 25.34 11.7049 25.34 11.3367V9.33334H25.5527L28.2193 11.8207C28.3934 11.9834 28.6411 12.0408 28.869 11.9713C29.097 11.9019 29.2706 11.7161 29.3244 11.484C29.3782 11.2519 29.3041 11.0087 29.13 10.846L27.4 9.23534C27.754 9.16528 28.0975 9.04989 28.422 8.89201C30.184 9.84534 35.976 13.612 38.1453 22.8193C39.0887 26.8273 38.7487 29.8933 37.1353 31.93C35.0713 34.5333 31.49 34.6667 30.7933 34.6667H21.3333C20.9651 34.6667 20.6667 34.9652 20.6667 35.3333C20.6667 35.7015 20.9651 36 21.3333 36H30.7933C31.9267 36 35.7967 35.766 38.18 32.758C40.0587 30.3853 40.484 26.9387 39.4427 22.514ZM5 32.6667C7.20467 32.6667 8.66667 33.4667 8.66667 34C8.66667 34.5333 7.20467 35.3333 5 35.3333C2.79533 35.3333 1.33333 34.5333 1.33333 34C1.33333 33.4667 2.79533 32.6667 5 32.6667ZM5 38.6667C2.79533 38.6667 1.33333 37.8667 1.33333 37.3333V35.846C2.46749 36.4225 3.72832 36.7047 5 36.6667C6.27168 36.7047 7.53251 36.4225 8.66667 35.846V37.3333C8.66667 37.8667 7.20467 38.6667 5 38.6667ZM13.6667 37.3333C11.462 37.3333 10 36.5333 10 36V29.1793C11.1342 29.7558 12.395 30.038 13.6667 30C14.9383 30.038 16.1992 29.7558 17.3333 29.1793V36C17.3333 36.5333 15.8713 37.3333 13.6667 37.3333ZM17.3333 27.3333C17.3333 27.8667 15.8713 28.6667 13.6667 28.6667C11.462 28.6667 10 27.8667 10 27.3333C10 26.8 11.462 26 13.6667 26C15.8713 26 17.3333 26.8 17.3333 27.3333ZM8.66667 27.3333V32.154C7.53251 31.5776 6.27168 31.2954 5 31.3333C4.66604 31.3331 4.33228 31.3498 4 31.3833V16.5127C5.13415 17.0891 6.39499 17.3713 7.66667 17.3333C8.93835 17.3713 10.1992 17.0891 11.3333 16.5127V24.9567C9.72267 25.3893 8.66667 26.2667 8.66667 27.3333ZM11.3333 14.6667C11.3333 15.2 9.87133 16 7.66667 16C5.462 16 4 15.2 4 14.6667C4 14.1333 5.462 13.3333 7.66667 13.3333C9.87133 13.3333 11.3333 14.1333 11.3333 14.6667ZM11.6667 6.66668C9.462 6.66668 8 5.86668 8 5.33334C8 4.80001 9.462 4.00001 11.6667 4.00001C13.8713 4.00001 15.3333 4.80001 15.3333 5.33334C15.3333 5.86668 13.8713 6.66668 11.6667 6.66668ZM33.1333 6.00001C33.1333 7.09268 31.95 7.98934 30.4667 8.00001C30.2186 7.99844 29.9713 7.97005 29.7293 7.91534C30.6969 6.88305 31.3695 5.6098 31.6767 4.22868C32.4791 4.46512 33.0563 5.16698 33.1333 6.00001ZM19.2453 1.85334C19.8083 2.3809 20.5525 2.67206 21.324 2.66668C22.096 2.67247 22.8407 2.38128 23.404 1.85334C23.7335 1.52064 24.1824 1.33345 24.6507 1.33345C25.1189 1.33345 25.5678 1.52064 25.8973 1.85334C26.4607 2.38167 27.2057 2.67292 27.978 2.66668C28.7502 2.67264 29.4952 2.38144 30.0587 1.85334C30.2434 1.69006 30.449 1.55197 30.67 1.44268C30.67 2.68068 30.44 5.74134 28.292 7.41934C27.8088 7.78227 27.2229 7.98276 26.6187 7.99201C27.1958 7.00075 27.6526 5.94417 27.9793 4.84468C28.0432 4.61507 27.9797 4.36886 27.8127 4.19878C27.6458 4.0287 27.4008 3.96059 27.1701 4.02011C26.9393 4.07963 26.7578 4.25774 26.694 4.48734C26.3248 5.74052 25.7571 6.92644 25.0127 8.00001H24.3273C23.5843 6.92549 23.0166 5.73985 22.6453 4.48734C22.5465 4.13259 22.1788 3.92515 21.824 4.02401C21.4692 4.12287 21.2618 4.49059 21.3607 4.84534C21.6877 5.94579 22.145 7.00326 22.7227 7.99534C22.1063 7.99218 21.5073 7.79043 21.0147 7.42001C18.8667 5.74268 18.6367 2.68201 18.6367 1.44801C18.8576 1.55386 19.0625 1.69031 19.2453 1.85334Z" fill="#1C2D37"/>
<path d="M36.0903 31.1018C36.8804 30.0153 37.3086 28.7078 37.3143 27.3644C37.3228 27.1878 37.2608 27.015 37.1419 26.8841C37.023 26.7532 36.8569 26.6749 36.6803 26.6664C36.3142 26.6535 36.0045 26.9348 35.9823 27.3004C35.9873 28.3651 35.6593 29.4047 35.0443 30.2738C33.7436 31.9164 31.2756 31.9998 30.7936 31.9998C30.4254 31.9998 30.127 32.2983 30.127 32.6664C30.127 33.0346 30.4254 33.3331 30.7936 33.3331C31.383 33.3331 34.4076 33.2258 36.0903 31.1018Z" fill="#1C2D37"/>
</g>
<defs>
<clipPath id="clip0_912_13943">
<rect width="40" height="40" fill="white"/>
</clipPath>
</defs>
</svg>
