<svg width="40" height="40" viewBox="0 0 40 40" fill="none" xmlns="http://www.w3.org/2000/svg">
<path d="M16.6315 9.05225H10.7041C10.1655 9.05225 9.72754 9.49017 9.72754 10.0288V19.7111C9.72754 20.2495 10.1655 20.6877 10.7041 20.6877H16.6315C17.1702 20.6877 17.6081 20.2495 17.6081 19.7111V10.0288C17.6081 9.49017 17.1702 9.05225 16.6315 9.05225ZM13.0817 19.5158H10.8994V17.1196H13.0817V19.5158ZM13.0817 15.9477H10.8994V13.7919H13.0817V15.9477ZM13.0817 12.6201H10.8994V10.2241H13.0817V12.6201ZM16.4362 19.5158H14.2536V17.1196H16.4362V19.5158ZM16.4362 15.9477H14.2536V13.7919H16.4362V15.9477ZM16.4362 12.6201H14.2536V10.2241H16.4362V12.6201Z" fill="#1C2D37"/>
<path d="M24.4902 32.4453C24.1664 32.4453 23.9043 32.7078 23.9043 33.0312V34.4381C23.9043 34.7616 24.1664 35.024 24.4902 35.024C24.814 35.024 25.0762 34.7616 25.0762 34.4381V33.0312C25.0762 32.7078 24.814 32.4453 24.4902 32.4453Z" fill="#1C2D37"/>
<path d="M39.9944 26.5277C39.9673 26.322 39.862 26.1386 39.6981 26.0117L27.2845 16.4069C27.0092 16.1942 26.6802 16.0815 26.3329 16.0815C25.9854 16.0815 25.6564 16.1942 25.3808 16.4072L23.5034 17.8598V16.1771C23.5034 15.8533 23.2412 15.5911 22.9174 15.5911C22.5936 15.5911 22.3315 15.8533 22.3315 16.1771V18.7665L12.9681 26.0114C12.8051 26.1371 12.6968 26.3266 12.6711 26.5302C12.6446 26.7361 12.6998 26.9406 12.8265 27.1057L13.7765 28.3414C13.9257 28.5345 14.1509 28.6453 14.3948 28.6453C14.5663 28.6453 14.7357 28.5876 14.8718 28.4824L26.3329 19.6146L34.996 26.3174V38.5257H30.2767V37.4271C30.2767 37.1033 30.0146 36.8411 29.6908 36.8411C29.367 36.8411 29.1049 37.1033 29.1049 37.4271V38.5257H23.5601V29.5493H29.1049V34.6732C29.1049 34.9969 29.367 35.2591 29.6908 35.2591C30.0146 35.2591 30.2767 34.9969 30.2767 34.6732V29.3539C30.2767 28.8156 29.8385 28.3774 29.3002 28.3774H23.3651C22.8265 28.3774 22.3882 28.8156 22.3882 29.3539V38.5257H17.9357V36.9275C17.9357 36.3889 17.4978 35.9509 16.9592 35.9509H16.3983C16.445 35.7178 16.4703 35.477 16.4703 35.2304C16.4703 33.2025 14.8202 31.5527 12.7923 31.5527C11.6915 31.5527 10.6616 32.0578 9.97278 32.8769C9.71216 32.7945 9.43506 32.7496 9.14759 32.7496C8.93641 32.7496 8.72889 32.7731 8.52716 32.8201C7.88904 31.727 6.69825 31.0239 5.41101 31.0239C5.27399 31.0239 5.13849 31.0324 5.00483 31.048V11.4343L13.6682 4.73083L22.3318 11.4343V13.4424C22.3318 13.7662 22.5939 14.0283 22.9177 14.0283C23.2412 14.0283 23.5037 13.7662 23.5037 13.4424V12.341L25.1296 13.5989C25.2654 13.7042 25.4348 13.7619 25.6063 13.7619C25.8508 13.7619 26.0763 13.6508 26.2249 13.4573C26.2271 13.4546 26.2292 13.4515 26.2313 13.4488L27.1414 12.2195L27.1472 12.2122C27.2073 12.1368 27.3669 11.937 27.3297 11.6443C27.3025 11.4377 27.1969 11.2543 27.0333 11.1282L14.62 1.52344C14.3447 1.31073 14.0158 1.19812 13.6682 1.19812C13.3206 1.19812 12.9916 1.31073 12.716 1.52374L9.3078 4.16077V3.42224C9.76862 3.34412 10.1208 2.94312 10.1208 2.46063V1.28906C10.1208 0.750427 9.68256 0.3125 9.14423 0.3125H4.396C3.85767 0.3125 3.41944 0.750427 3.41944 1.28906V2.46033C3.41944 2.94312 3.77161 3.34381 4.23243 3.42224V8.08777L0.304204 11.1273C0.14063 11.2531 0.0322922 11.4429 0.00665751 11.6458C-0.0201979 11.8521 0.0347337 12.0566 0.161687 12.222L1.1117 13.4576C1.26062 13.6511 1.48584 13.7619 1.72998 13.7619C1.90149 13.7619 2.07056 13.7042 2.20728 13.5989L3.83295 12.341V31.3925C2.90278 31.8503 2.18653 32.6987 1.92041 33.7335C1.03693 34.0741 0.429936 34.9323 0.429936 35.9064C0.429936 36.0138 0.437566 36.1194 0.451604 36.2231C0.265752 36.4011 0.149785 36.6507 0.149785 36.9275V38.7213C0.149785 39.2596 0.587712 39.6979 1.12635 39.6979H37.8661C38.1899 39.6979 38.4521 39.4354 38.4521 39.1119C38.4521 38.7881 38.1899 38.526 37.8661 38.526H36.1678V27.2241L37.7941 28.4824C37.9299 28.5873 38.0993 28.6453 38.2708 28.6453C38.5153 28.6453 38.7408 28.5342 38.8894 28.3405C38.8915 28.3377 38.8937 28.335 38.8958 28.3322L39.8062 27.1027L39.8123 27.095C39.8721 27.02 40.0314 26.8201 39.9944 26.5277ZM12.7923 32.7246C14.1741 32.7246 15.2984 33.8489 15.2984 35.2304C15.2984 35.481 15.2606 35.7227 15.1919 35.9509H11.8496C11.8749 35.802 11.889 35.6488 11.889 35.4926C11.889 34.6976 11.5487 33.981 11.007 33.4793C11.4703 33.009 12.1111 32.7246 12.7923 32.7246ZM4.59131 1.48438H8.94892V2.26501H4.59131V1.48438ZM8.13593 3.43689V5.06744L5.4043 7.18109V3.43689H8.13593ZM1.80109 12.4316L1.32837 11.8167L13.4329 2.45056C13.5021 2.39716 13.5812 2.37 13.6682 2.37C13.7551 2.37 13.8342 2.39716 13.9031 2.45026L25.9912 11.8036L25.5297 12.4271L14.0267 3.52661C13.8156 3.36334 13.5208 3.36334 13.3096 3.52661L1.80109 12.4316ZM16.7639 38.526H1.32166V37.1228H6.719C7.04248 37.1228 7.30494 36.8607 7.30494 36.5369C7.30494 36.2131 7.04248 35.9509 6.719 35.9509H1.60334C1.60273 35.936 1.60181 35.9213 1.60181 35.9064C1.60181 35.3537 1.99457 34.8761 2.53626 34.7711C2.78132 34.7235 2.9693 34.5261 3.0047 34.2792C3.1756 33.0917 4.21015 32.196 5.41101 32.196C6.40833 32.196 7.32019 32.822 7.68 33.7534C7.73859 33.9053 7.85761 34.0259 8.00898 34.0866C8.16034 34.147 8.32972 34.1415 8.47712 34.072C8.68769 33.9725 8.91352 33.9218 9.14759 33.9218C10.0131 33.9218 10.7171 34.6265 10.7171 35.4929C10.7171 35.6525 10.6921 35.806 10.6475 35.9509H9.5315C9.20771 35.9509 8.94556 36.2134 8.94556 36.5369C8.94556 36.8607 9.20771 37.1228 9.5315 37.1228H16.7639V38.526ZM38.1945 27.3105L26.6915 18.4103C26.4803 18.2468 26.1855 18.2468 25.9744 18.4103L14.4656 27.3151L13.9929 26.7001L26.0977 17.3343C26.1669 17.2806 26.246 17.2534 26.3329 17.2534C26.4196 17.2534 26.499 17.2806 26.5679 17.334L38.6559 26.687L38.1945 27.3105Z" fill="#1C2D37"/>
</svg>
