<svg width="40" height="40" viewBox="0 0 40 40" fill="none" xmlns="http://www.w3.org/2000/svg">
<path d="M25 19.9998C25 18.1588 26.4923 16.6665 28.3333 16.6665C32.0152 16.6665 35 19.6513 35 23.3332C35 27.015 32.0152 29.9998 28.3333 29.9998C26.4923 29.9998 25 28.5075 25 26.6665V19.9998Z" stroke="#1C2D37" stroke-width="2"/>
<path d="M15 19.9998C15 18.1588 13.5076 16.6665 11.6667 16.6665C7.98477 16.6665 5 19.6513 5 23.3332C5 27.015 7.98477 29.9998 11.6667 29.9998C13.5076 29.9998 15 28.5075 15 26.6665V19.9998Z" stroke="#1C2D37" stroke-width="2"/>
<path d="M5 23.3335V18.3335C5 10.0492 11.7157 3.3335 20 3.3335C28.2843 3.3335 35 10.0492 35 18.3335V26.4105C35 29.7577 35 31.4312 34.4127 32.7363C33.7442 34.2217 32.5548 35.411 31.0695 36.0795C29.7643 36.6668 28.0908 36.6668 24.7437 36.6668H20" stroke="#1C2D37" stroke-width="2" stroke-linecap="round" stroke-linejoin="round"/>
</svg>
