<svg width="40" height="40" viewBox="0 0 40 40" fill="none" xmlns="http://www.w3.org/2000/svg">
<path d="M36.6072 7.51041C36.6072 7.51041 36.9007 4.53586 36.1823 3.81763M36.1823 3.81763C35.4598 3.09514 32.49 3.39533 32.49 3.39533M36.1823 3.81763L31.6665 8.33344" stroke="#364436" stroke-width="2" stroke-linecap="round" stroke-linejoin="round"/>
<path d="M36.6072 32.4895C36.6072 32.4895 36.9007 35.464 36.1823 36.1823M36.1823 36.1823C35.4598 36.9048 32.49 36.6047 32.49 36.6047M36.1823 36.1823L31.6665 31.6665" stroke="#364436" stroke-width="2" stroke-linecap="round" stroke-linejoin="round"/>
<path d="M3.81763 3.81761L8.33349 8.33344M3.81763 3.81761C4.54011 3.09514 7.51004 3.39533 7.51004 3.39533M3.81763 3.81761C3.09938 4.53586 3.39284 7.51039 3.39284 7.51039" stroke="#364436" stroke-width="2" stroke-linecap="round" stroke-linejoin="round"/>
<path d="M3.81763 36.1823L8.33349 31.6665M3.81763 36.1823C4.54011 36.9048 7.51004 36.6047 7.51004 36.6047M3.81763 36.1823C3.09938 35.4642 3.39284 32.4897 3.39284 32.4897" stroke="#364436" stroke-width="2" stroke-linecap="round" stroke-linejoin="round"/>
<path d="M31.6668 20.0002C31.6668 26.4435 26.4435 31.6668 20.0002 31.6668C13.5568 31.6668 8.3335 26.4435 8.3335 20.0002C8.3335 13.5568 13.5568 8.3335 20.0002 8.3335C26.4435 8.3335 31.6668 13.5568 31.6668 20.0002Z" stroke="#364436" stroke-width="2"/>
<path d="M19.8565 15.5023C18.0155 15.5023 16.6665 16.5725 16.6665 17.8147C16.6665 19.0567 17.5363 19.8333 19.9998 19.8333C22.7135 19.8333 23.3332 21.0707 23.3332 22.3127C23.3332 23.5548 22.147 24.5358 19.8565 24.5358M19.8565 15.5023C21.3078 15.5023 22.075 16.0104 22.6808 16.6943M19.8565 15.5023V14.0952M19.8565 24.5358C18.4052 24.5358 17.8408 24.2492 17.0415 23.5258M19.8565 24.5358V25.8482" stroke="#364436" stroke-width="2" stroke-linecap="round"/>
</svg>
