<svg width="40" height="40" viewBox="0 0 40 40" fill="none" xmlns="http://www.w3.org/2000/svg">
<path d="M3.33301 23.3333C3.33301 17.489 3.33301 14.5667 4.84627 12.5999C5.12331 12.2398 5.43282 11.9097 5.77039 11.6142C7.61431 10 10.3539 10 15.833 10H24.1663C29.6455 10 32.385 10 34.229 11.6142C34.5665 11.9097 34.876 12.2398 35.153 12.5999C36.6663 14.5667 36.6663 17.489 36.6663 23.3333C36.6663 29.1777 36.6663 32.1 35.153 34.0668C34.876 34.4268 34.5665 34.757 34.229 35.0525C32.385 36.6667 29.6455 36.6667 24.1663 36.6667H15.833C10.3539 36.6667 7.61431 36.6667 5.77039 35.0525C5.43282 34.757 5.12331 34.4268 4.84627 34.0668C3.33301 32.1 3.33301 29.1777 3.33301 23.3333Z" stroke="#364436" stroke-width="2"/>
<path d="M26.6663 10.0002C26.6663 6.85746 26.6663 5.28611 25.69 4.30981C24.7137 3.3335 23.1423 3.3335 19.9997 3.3335C16.857 3.3335 15.2856 3.3335 14.3093 4.30981C13.333 5.28611 13.333 6.85746 13.333 10.0002" stroke="#364436" stroke-width="2" stroke-linecap="round" stroke-linejoin="round"/>
<path d="M20.0003 18.3332C18.1593 18.3332 16.667 19.4525 16.667 20.8332C16.667 22.2138 18.1593 23.3332 20.0003 23.3332C21.8413 23.3332 23.3337 24.4525 23.3337 25.8332C23.3337 27.2138 21.8413 28.3332 20.0003 28.3332M20.0003 18.3332C21.4517 18.3332 22.6863 19.0288 23.144 19.9998M20.0003 18.3332V16.6665M20.0003 28.3332C18.549 28.3332 17.3143 27.6375 16.8567 26.6665M20.0003 28.3332V29.9998" stroke="#364436" stroke-width="2" stroke-linecap="round"/>
<path d="M9.99967 20H3.33301" stroke="#364436" stroke-width="2" stroke-linecap="round"/>
<path d="M36.6667 20H30" stroke="#364436" stroke-width="2" stroke-linecap="round"/>
</svg>
