<svg width="40" height="40" viewBox="0 0 40 40" fill="none" xmlns="http://www.w3.org/2000/svg">
<path d="M19.9973 3.3335C14.9844 3.3335 11.734 6.69848 7.88985 7.925C6.32681 8.42371 5.54528 8.67306 5.229 9.02458C4.91271 9.3761 4.8201 9.88975 4.63486 10.917C2.65271 21.9102 6.98516 32.0735 17.3175 36.0293C18.4277 36.4543 18.9827 36.6668 20.0028 36.6668C21.0228 36.6668 21.578 36.4543 22.688 36.0293C33.0197 32.0733 37.348 21.9102 35.3653 10.917C35.18 9.88956 35.0873 9.37583 34.771 9.02431C34.4547 8.6728 33.6732 8.42358 32.1102 7.92515C28.2645 6.69875 25.0105 3.3335 19.9973 3.3335Z" stroke="#1C2D37" stroke-width="2" stroke-linecap="round" stroke-linejoin="round"/>
<path d="M15 21.6667C15 21.6667 16.6667 21.6667 18.3333 25C18.3333 25 23.6275 16.6667 28.3333 15" stroke="#1C2D37" stroke-width="2" stroke-linecap="round" stroke-linejoin="round"/>
</svg>
