<svg width="40" height="40" viewBox="0 0 40 40" fill="none" xmlns="http://www.w3.org/2000/svg">
<path d="M31.0265 33.3335H31.8435C33.7598 33.3335 35.2842 32.4603 36.6528 31.2395C40.1297 28.1378 31.9565 25.0002 29.1663 25.0002M25.833 8.44811C26.2115 8.37305 26.6045 8.3335 27.0077 8.3335C30.0408 8.3335 32.4997 10.5721 32.4997 13.3335C32.4997 16.0949 30.0408 18.3335 27.0077 18.3335C26.6045 18.3335 26.2115 18.294 25.833 18.2188" stroke="#1C2D37" stroke-width="2" stroke-linecap="round"/>
<path d="M7.46885 26.852C5.5039 27.905 0.351898 30.0552 3.4898 32.7457C5.02265 34.06 6.72985 35 8.8762 35H21.1238C23.2702 35 24.9773 34.06 26.5102 32.7457C29.6482 30.0552 24.4962 27.905 22.5312 26.852C17.9233 24.3827 12.0767 24.3827 7.46885 26.852Z" stroke="#1C2D37" stroke-width="2"/>
<path d="M21.6663 12.5002C21.6663 16.1821 18.6815 19.1668 14.9997 19.1668C11.3178 19.1668 8.33301 16.1821 8.33301 12.5002C8.33301 8.81826 11.3178 5.8335 14.9997 5.8335C18.6815 5.8335 21.6663 8.81826 21.6663 12.5002Z" stroke="#1C2D37" stroke-width="2"/>
</svg>
