<svg width="190" height="56" viewBox="0 0 190 56" fill="none" xmlns="http://www.w3.org/2000/svg">
<path d="M26.5484 33.3874L29.6755 31.1775V55.9973H26.5484V33.3874ZM46.9149 26.2033V14.3923L26.5484 0V25.848L23.0738 28.3028V14.4004L0 30.7065V56H3.1271V32.2461L19.944 20.3624V30.518L9.97059 37.5648V56H23.0711V35.8448L19.944 38.0547V52.9692H13.0977V39.1017L29.6755 27.3876V5.96203L43.785 15.9319V23.9935L34.0896 17.1432V55.9973H37.2167V23.1025L58.8701 38.4019V52.9665H46.9121V33.74L43.785 31.5328V55.9973H62V36.865L46.9149 26.2033Z" fill="white"/>
<path d="M72.9219 9.51562H77.5C80.0521 9.51562 81.7812 9.61979 82.6875 9.82812C84.0521 10.1406 85.1615 10.8125 86.0156 11.8438C86.8698 12.8646 87.2969 14.125 87.2969 15.625C87.2969 16.875 87 17.974 86.4062 18.9219C85.8229 19.8698 84.9844 20.5885 83.8906 21.0781C82.7969 21.5573 81.2865 21.8021 79.3594 21.8125L87.625 32.5H84.7812L76.5312 21.8125H75.2188V32.5H72.9219V9.51562ZM75.2188 11.7656V19.5781L79.1719 19.6094C80.7031 19.6094 81.8333 19.4635 82.5625 19.1719C83.3021 18.8802 83.875 18.4167 84.2812 17.7812C84.6979 17.1354 84.9062 16.4167 84.9062 15.625C84.9062 14.8542 84.6979 14.1562 84.2812 13.5312C83.8646 12.8958 83.3177 12.4427 82.6406 12.1719C81.9635 11.901 80.8385 11.7656 79.2656 11.7656H75.2188ZM92.25 9.51562H105.422V11.7812H94.5469V18.9688H105.328V21.2188H94.5469V30.2344H105.328V32.5H92.25V9.51562ZM118.781 9.51562L129.5 32.5H127.031L123.422 24.9375H113.516L109.922 32.5H107.359L118.219 9.51562H118.781ZM118.5 14.3906L114.547 22.7188H122.406L118.5 14.3906ZM133.078 9.51562H135.391V30.2812H144.219V32.5H133.078V9.51562ZM157.25 9.51562L167.969 32.5H165.5L161.891 24.9375H151.984L148.391 32.5H145.828L156.688 9.51562H157.25ZM156.969 14.3906L153.016 22.7188H160.875L156.969 14.3906ZM171.672 9.51562H176.25C178.802 9.51562 180.531 9.61979 181.438 9.82812C182.802 10.1406 183.911 10.8125 184.766 11.8438C185.62 12.8646 186.047 14.125 186.047 15.625C186.047 16.875 185.75 17.974 185.156 18.9219C184.573 19.8698 183.734 20.5885 182.641 21.0781C181.547 21.5573 180.036 21.8021 178.109 21.8125L186.375 32.5H183.531L175.281 21.8125H173.969V32.5H171.672V9.51562ZM173.969 11.7656V19.5781L177.922 19.6094C179.453 19.6094 180.583 19.4635 181.312 19.1719C182.052 18.8802 182.625 18.4167 183.031 17.7812C183.448 17.1354 183.656 16.4167 183.656 15.625C183.656 14.8542 183.448 14.1562 183.031 13.5312C182.615 12.8958 182.068 12.4427 181.391 12.1719C180.714 11.901 179.589 11.7656 178.016 11.7656H173.969Z" fill="white"/>
<path d="M71.19 52.5C71.0967 52.5 71.05 52.458 71.05 52.374V43.204C71.05 43.12 71.0967 43.078 71.19 43.078H72.17C72.2353 43.078 72.2773 43.092 72.296 43.12C72.3147 43.1387 72.324 43.176 72.324 43.232V51.366C72.324 51.4127 72.3287 51.4453 72.338 51.464C72.3473 51.4827 72.38 51.492 72.436 51.492H75.656C75.74 51.492 75.7867 51.5013 75.796 51.52C75.8147 51.5387 75.824 51.59 75.824 51.674V52.318C75.824 52.402 75.8147 52.4533 75.796 52.472C75.7773 52.4907 75.726 52.5 75.642 52.5H71.19ZM79.2923 52.374C79.2923 52.458 79.2503 52.5 79.1663 52.5H78.1583C78.0649 52.5 78.0183 52.458 78.0183 52.374V43.204C78.0183 43.12 78.0649 43.078 78.1583 43.078H79.1663C79.2503 43.078 79.2923 43.12 79.2923 43.204V52.374ZM84.6429 52.5C84.5962 52.4907 84.5542 52.4767 84.5169 52.458C84.4796 52.43 84.4469 52.388 84.4189 52.332C84.2229 51.94 84.0176 51.45 83.8029 50.862C83.5882 50.274 83.3782 49.6393 83.1729 48.958C82.9676 48.2767 82.7762 47.5907 82.5989 46.9C82.4216 46.2093 82.2676 45.5607 82.1369 44.954C82.0062 44.3473 81.9129 43.8293 81.8569 43.4C81.8382 43.2787 81.8336 43.1947 81.8429 43.148C81.8522 43.1013 81.8896 43.078 81.9549 43.078H82.9349C82.9909 43.078 83.0282 43.092 83.0469 43.12C83.0749 43.148 83.0982 43.218 83.1169 43.33C83.1636 43.6567 83.2289 44.0253 83.3129 44.436C83.3969 44.8467 83.4949 45.276 83.6069 45.724C83.7189 46.172 83.8356 46.6247 83.9569 47.082C84.0782 47.53 84.2042 47.9593 84.3349 48.37C84.4656 48.7807 84.5916 49.1587 84.7129 49.504C84.7689 49.6627 84.8249 49.854 84.8809 50.078C84.9462 50.302 85.0116 50.498 85.0769 50.666C85.1049 50.7127 85.1282 50.736 85.1469 50.736C85.1656 50.736 85.1889 50.7127 85.2169 50.666C85.2916 50.5073 85.3616 50.316 85.4269 50.092C85.4922 49.868 85.5482 49.672 85.5949 49.504C85.7162 49.168 85.8376 48.7947 85.9589 48.384C86.0896 47.9733 86.2156 47.5393 86.3369 47.082C86.4676 46.6247 86.5889 46.172 86.7009 45.724C86.8129 45.276 86.9109 44.8467 86.9949 44.436C87.0789 44.016 87.1442 43.6473 87.1909 43.33C87.2189 43.218 87.2422 43.148 87.2609 43.12C87.2796 43.092 87.3169 43.078 87.3729 43.078H88.3669C88.4322 43.078 88.4696 43.1013 88.4789 43.148C88.4882 43.1947 88.4836 43.2787 88.4649 43.4C88.4089 43.8107 88.3156 44.3193 88.1849 44.926C88.0542 45.5233 87.8956 46.172 87.7089 46.872C87.5316 47.5627 87.3402 48.258 87.1349 48.958C86.9296 49.6487 86.7196 50.288 86.5049 50.876C86.2996 51.464 86.1036 51.9447 85.9169 52.318C85.8796 52.3833 85.8422 52.43 85.8049 52.458C85.7676 52.4767 85.7256 52.4907 85.6789 52.5H84.6429ZM92.2855 52.374C92.2855 52.458 92.2435 52.5 92.1595 52.5H91.1515C91.0582 52.5 91.0115 52.458 91.0115 52.374V43.204C91.0115 43.12 91.0582 43.078 91.1515 43.078H92.1595C92.2435 43.078 92.2855 43.12 92.2855 43.204V52.374ZM100.814 49.784C100.833 49.8213 100.861 49.84 100.898 49.84C100.945 49.84 100.973 49.812 100.982 49.756C101.001 49.4387 101.015 49.07 101.024 48.65C101.033 48.23 101.038 47.7867 101.038 47.32C101.038 46.844 101.029 46.3633 101.01 45.878C101.001 45.3927 100.982 44.926 100.954 44.478C100.926 44.0207 100.884 43.6007 100.828 43.218C100.828 43.1247 100.856 43.078 100.912 43.078H101.934C101.971 43.078 102.009 43.092 102.046 43.12C102.083 43.1387 102.102 43.1667 102.102 43.204C102.167 43.54 102.214 43.9553 102.242 44.45C102.279 44.9353 102.303 45.472 102.312 46.06C102.321 46.6387 102.321 47.236 102.312 47.852C102.312 48.4587 102.303 49.0513 102.284 49.63C102.265 50.1993 102.237 50.722 102.2 51.198C102.172 51.674 102.139 52.066 102.102 52.374C102.102 52.43 102.079 52.4673 102.032 52.486C101.995 52.4953 101.953 52.5 101.906 52.5H101.234C101.178 52.5 101.122 52.4487 101.066 52.346L96.7961 45.738C96.7868 45.7007 96.7634 45.682 96.7261 45.682C96.6981 45.682 96.6794 45.7053 96.6701 45.752C96.6514 46.2 96.6374 46.6667 96.6281 47.152C96.6188 47.6373 96.6141 48.1273 96.6141 48.622C96.6141 49.1073 96.6188 49.5833 96.6281 50.05C96.6468 50.5073 96.6654 50.9367 96.6841 51.338C96.7121 51.73 96.7448 52.0707 96.7821 52.36C96.7914 52.4533 96.7634 52.5 96.6981 52.5H95.7041C95.6574 52.5 95.6154 52.4953 95.5781 52.486C95.5408 52.4673 95.5174 52.43 95.5081 52.374C95.4708 52.0567 95.4381 51.66 95.4101 51.184C95.3821 50.6987 95.3588 50.1667 95.3401 49.588C95.3308 49.0093 95.3214 48.4167 95.3121 47.81C95.3121 47.2033 95.3214 46.6107 95.3401 46.032C95.3588 45.444 95.3821 44.9073 95.4101 44.422C95.4474 43.9367 95.4941 43.5307 95.5501 43.204C95.5594 43.1667 95.5828 43.1387 95.6201 43.12C95.6574 43.092 95.6901 43.078 95.7181 43.078H96.3901C96.4461 43.078 96.4928 43.1107 96.5301 43.176L100.814 49.784ZM111.337 52.136C111.337 52.2573 111.262 52.3507 111.113 52.416C110.973 52.4813 110.786 52.5233 110.553 52.542C110.329 52.57 110.091 52.584 109.839 52.584C108.196 52.584 106.946 52.192 106.087 51.408C105.238 50.624 104.813 49.4713 104.813 47.95C104.813 46.9233 105.004 46.0413 105.387 45.304C105.779 44.5667 106.311 44.002 106.983 43.61C107.655 43.2087 108.411 43.008 109.251 43.008C109.559 43.008 109.876 43.022 110.203 43.05C110.539 43.0687 110.81 43.1107 111.015 43.176C111.118 43.2133 111.188 43.246 111.225 43.274C111.262 43.2927 111.281 43.344 111.281 43.428V44.142C111.281 44.2633 111.253 44.338 111.197 44.366C111.15 44.394 111.094 44.3893 111.029 44.352C110.796 44.2213 110.553 44.1327 110.301 44.086C110.049 44.0393 109.774 44.016 109.475 44.016C109.176 44.016 108.836 44.0767 108.453 44.198C108.07 44.31 107.706 44.5107 107.361 44.8C107.016 45.08 106.731 45.4673 106.507 45.962C106.283 46.4567 106.171 47.0867 106.171 47.852C106.171 48.6453 106.278 49.2893 106.493 49.784C106.717 50.2693 107.002 50.6427 107.347 50.904C107.692 51.1653 108.052 51.3473 108.425 51.45C108.808 51.5433 109.162 51.59 109.489 51.59C109.816 51.59 110.007 51.534 110.063 51.422V48.356C110.063 48.3 110.054 48.2673 110.035 48.258C110.016 48.2393 109.984 48.23 109.937 48.23H108.033C107.977 48.23 107.94 48.2207 107.921 48.202C107.902 48.1833 107.893 48.146 107.893 48.09V47.376C107.893 47.32 107.902 47.2827 107.921 47.264C107.94 47.236 107.977 47.222 108.033 47.222H111.127C111.23 47.222 111.29 47.236 111.309 47.264C111.328 47.2827 111.337 47.3433 111.337 47.446V52.136ZM118.249 52.08V51.254C118.249 51.198 118.268 51.1747 118.305 51.184C118.342 51.184 118.394 51.198 118.459 51.226C118.646 51.282 118.851 51.338 119.075 51.394C119.308 51.45 119.537 51.4967 119.761 51.534C119.994 51.562 120.19 51.576 120.349 51.576C120.956 51.576 121.408 51.4127 121.707 51.086C122.015 50.75 122.169 50.33 122.169 49.826C122.169 49.3593 122.034 48.9953 121.763 48.734C121.492 48.4727 121.077 48.2673 120.517 48.118C120.256 48.0527 119.98 47.9733 119.691 47.88C119.402 47.7773 119.131 47.6373 118.879 47.46C118.627 47.2827 118.417 47.04 118.249 46.732C118.09 46.424 118.011 46.0227 118.011 45.528C118.011 44.9307 118.146 44.45 118.417 44.086C118.688 43.7127 119.042 43.442 119.481 43.274C119.929 43.106 120.41 43.022 120.923 43.022C121.138 43.022 121.362 43.0407 121.595 43.078C121.838 43.106 122.066 43.1527 122.281 43.218C122.505 43.274 122.701 43.3393 122.869 43.414C122.934 43.4233 122.972 43.442 122.981 43.47C123 43.498 123.009 43.5353 123.009 43.582V44.324C123.009 44.492 122.906 44.52 122.701 44.408C122.486 44.296 122.234 44.2027 121.945 44.128C121.665 44.044 121.352 44.002 121.007 44.002C120.494 44.002 120.078 44.1327 119.761 44.394C119.453 44.646 119.299 44.9913 119.299 45.43C119.299 45.7473 119.369 46.0087 119.509 46.214C119.649 46.41 119.831 46.564 120.055 46.676C120.279 46.788 120.517 46.8813 120.769 46.956C121.03 47.0307 121.282 47.1053 121.525 47.18C121.954 47.3107 122.314 47.474 122.603 47.67C122.892 47.8567 123.112 48.1133 123.261 48.44C123.42 48.7667 123.499 49.196 123.499 49.728C123.499 50.3627 123.368 50.8947 123.107 51.324C122.855 51.744 122.491 52.066 122.015 52.29C121.548 52.514 120.998 52.626 120.363 52.626C120.092 52.626 119.78 52.5933 119.425 52.528C119.07 52.4627 118.744 52.3833 118.445 52.29C118.37 52.2713 118.319 52.248 118.291 52.22C118.263 52.1827 118.249 52.136 118.249 52.08ZM125.68 47.824C125.68 46.788 125.787 45.9153 126.002 45.206C126.217 44.4873 126.59 43.946 127.122 43.582C127.663 43.218 128.424 43.036 129.404 43.036C130.169 43.036 130.795 43.1433 131.28 43.358C131.775 43.5633 132.157 43.8667 132.428 44.268C132.708 44.6693 132.899 45.1687 133.002 45.766C133.114 46.3633 133.17 47.0493 133.17 47.824C133.17 48.5987 133.114 49.2847 133.002 49.882C132.899 50.47 132.708 50.9693 132.428 51.38C132.157 51.7813 131.775 52.0847 131.28 52.29C130.795 52.4953 130.169 52.598 129.404 52.598C128.424 52.598 127.663 52.416 127.122 52.052C126.59 51.688 126.217 51.1513 126.002 50.442C125.787 49.7327 125.68 48.86 125.68 47.824ZM127.01 47.824C127.01 48.7947 127.094 49.5507 127.262 50.092C127.43 50.624 127.687 50.9973 128.032 51.212C128.387 51.4173 128.839 51.52 129.39 51.52C129.941 51.52 130.398 51.4173 130.762 51.212C131.126 51.0067 131.397 50.638 131.574 50.106C131.751 49.5647 131.84 48.804 131.84 47.824C131.84 46.844 131.751 46.0833 131.574 45.542C131.397 45.0007 131.126 44.6227 130.762 44.408C130.398 44.1933 129.941 44.086 129.39 44.086C128.839 44.086 128.387 44.1933 128.032 44.408C127.687 44.6227 127.43 45.0007 127.262 45.542C127.094 46.0833 127.01 46.844 127.01 47.824ZM136.01 52.5C135.917 52.5 135.87 52.458 135.87 52.374V43.204C135.87 43.12 135.917 43.078 136.01 43.078H136.99C137.055 43.078 137.097 43.092 137.116 43.12C137.135 43.1387 137.144 43.176 137.144 43.232V51.366C137.144 51.4127 137.149 51.4453 137.158 51.464C137.167 51.4827 137.2 51.492 137.256 51.492H140.476C140.56 51.492 140.607 51.5013 140.616 51.52C140.635 51.5387 140.644 51.59 140.644 51.674V52.318C140.644 52.402 140.635 52.4533 140.616 52.472C140.597 52.4907 140.546 52.5 140.462 52.5H136.01ZM146.226 52.598C145.452 52.598 144.84 52.5093 144.392 52.332C143.944 52.1453 143.608 51.9167 143.384 51.646C143.17 51.3753 143.025 51.1 142.95 50.82C142.876 50.5307 142.829 50.2787 142.81 50.064C142.773 49.6813 142.745 49.266 142.726 48.818C142.708 48.37 142.698 47.9407 142.698 47.53C142.708 47.0727 142.722 46.592 142.74 46.088C142.759 45.584 142.787 45.0847 142.824 44.59C142.871 44.0953 142.927 43.638 142.992 43.218C142.992 43.1807 143.006 43.148 143.034 43.12C143.072 43.092 143.109 43.078 143.146 43.078C143.305 43.078 143.464 43.078 143.622 43.078C143.781 43.078 143.94 43.078 144.098 43.078C144.154 43.078 144.187 43.0873 144.196 43.106C144.206 43.1247 144.206 43.19 144.196 43.302C144.159 43.6753 144.126 44.0627 144.098 44.464C144.07 44.8653 144.047 45.2807 144.028 45.71C143.991 46.4473 143.968 47.1707 143.958 47.88C143.958 48.58 143.991 49.252 144.056 49.896C144.075 50.1107 144.117 50.3207 144.182 50.526C144.248 50.722 144.355 50.8993 144.504 51.058C144.654 51.2167 144.864 51.3473 145.134 51.45C145.414 51.5433 145.769 51.59 146.198 51.59C146.628 51.59 146.978 51.5433 147.248 51.45C147.528 51.3473 147.748 51.2167 147.906 51.058C148.065 50.8993 148.177 50.7173 148.242 50.512C148.308 50.3067 148.35 50.1013 148.368 49.896C148.424 49.2613 148.452 48.5987 148.452 47.908C148.452 47.2173 148.434 46.508 148.396 45.78C148.378 45.3413 148.35 44.9167 148.312 44.506C148.284 44.086 148.252 43.6847 148.214 43.302C148.214 43.19 148.219 43.1247 148.228 43.106C148.238 43.0873 148.27 43.078 148.326 43.078C148.494 43.078 148.658 43.078 148.816 43.078C148.984 43.078 149.148 43.078 149.306 43.078C149.362 43.078 149.4 43.092 149.418 43.12C149.446 43.148 149.465 43.1807 149.474 43.218C149.54 43.638 149.591 44.0953 149.628 44.59C149.675 45.0753 149.708 45.57 149.726 46.074C149.745 46.5687 149.754 47.04 149.754 47.488C149.764 47.908 149.759 48.3467 149.74 48.804C149.731 49.252 149.703 49.672 149.656 50.064C149.638 50.232 149.605 50.428 149.558 50.652C149.512 50.8667 149.423 51.0907 149.292 51.324C149.171 51.548 148.989 51.758 148.746 51.954C148.504 52.1407 148.177 52.2947 147.766 52.416C147.356 52.5373 146.842 52.598 146.226 52.598ZM154.217 52.5C154.18 52.5 154.147 52.4907 154.119 52.472C154.091 52.444 154.077 52.4113 154.077 52.374V44.198C154.077 44.1513 154.068 44.1233 154.049 44.114C154.04 44.0953 154.017 44.086 153.979 44.086H152.075C152.01 44.086 151.968 44.0813 151.949 44.072C151.931 44.0533 151.921 44.016 151.921 43.96V43.19C151.921 43.1433 151.931 43.1153 151.949 43.106C151.968 43.0873 152.005 43.078 152.061 43.078H157.381C157.456 43.078 157.503 43.0873 157.521 43.106C157.54 43.1247 157.549 43.1573 157.549 43.204V43.96C157.549 44.016 157.54 44.0533 157.521 44.072C157.503 44.0813 157.456 44.086 157.381 44.086H155.477C155.431 44.086 155.398 44.0953 155.379 44.114C155.361 44.1233 155.351 44.1513 155.351 44.198V52.374C155.351 52.458 155.309 52.5 155.225 52.5H154.217ZM161.139 52.374C161.139 52.458 161.097 52.5 161.013 52.5H160.005C159.911 52.5 159.865 52.458 159.865 52.374V43.204C159.865 43.12 159.911 43.078 160.005 43.078H161.013C161.097 43.078 161.139 43.12 161.139 43.204V52.374ZM163.857 47.824C163.857 46.788 163.965 45.9153 164.179 45.206C164.394 44.4873 164.767 43.946 165.299 43.582C165.841 43.218 166.601 43.036 167.581 43.036C168.347 43.036 168.972 43.1433 169.457 43.358C169.952 43.5633 170.335 43.8667 170.605 44.268C170.885 44.6693 171.077 45.1687 171.179 45.766C171.291 46.3633 171.347 47.0493 171.347 47.824C171.347 48.5987 171.291 49.2847 171.179 49.882C171.077 50.47 170.885 50.9693 170.605 51.38C170.335 51.7813 169.952 52.0847 169.457 52.29C168.972 52.4953 168.347 52.598 167.581 52.598C166.601 52.598 165.841 52.416 165.299 52.052C164.767 51.688 164.394 51.1513 164.179 50.442C163.965 49.7327 163.857 48.86 163.857 47.824ZM165.187 47.824C165.187 48.7947 165.271 49.5507 165.439 50.092C165.607 50.624 165.864 50.9973 166.209 51.212C166.564 51.4173 167.017 51.52 167.567 51.52C168.118 51.52 168.575 51.4173 168.939 51.212C169.303 51.0067 169.574 50.638 169.751 50.106C169.929 49.5647 170.017 48.804 170.017 47.824C170.017 46.844 169.929 46.0833 169.751 45.542C169.574 45.0007 169.303 44.6227 168.939 44.408C168.575 44.1933 168.118 44.086 167.567 44.086C167.017 44.086 166.564 44.1933 166.209 44.408C165.864 44.6227 165.607 45.0007 165.439 45.542C165.271 46.0833 165.187 46.844 165.187 47.824ZM179.479 49.784C179.498 49.8213 179.526 49.84 179.563 49.84C179.61 49.84 179.638 49.812 179.647 49.756C179.666 49.4387 179.68 49.07 179.689 48.65C179.699 48.23 179.703 47.7867 179.703 47.32C179.703 46.844 179.694 46.3633 179.675 45.878C179.666 45.3927 179.647 44.926 179.619 44.478C179.591 44.0207 179.549 43.6007 179.493 43.218C179.493 43.1247 179.521 43.078 179.577 43.078H180.599C180.637 43.078 180.674 43.092 180.711 43.12C180.749 43.1387 180.767 43.1667 180.767 43.204C180.833 43.54 180.879 43.9553 180.907 44.45C180.945 44.9353 180.968 45.472 180.977 46.06C180.987 46.6387 180.987 47.236 180.977 47.852C180.977 48.4587 180.968 49.0513 180.949 49.63C180.931 50.1993 180.903 50.722 180.865 51.198C180.837 51.674 180.805 52.066 180.767 52.374C180.767 52.43 180.744 52.4673 180.697 52.486C180.66 52.4953 180.618 52.5 180.571 52.5H179.899C179.843 52.5 179.787 52.4487 179.731 52.346L175.461 45.738C175.452 45.7007 175.429 45.682 175.391 45.682C175.363 45.682 175.345 45.7053 175.335 45.752C175.317 46.2 175.303 46.6667 175.293 47.152C175.284 47.6373 175.279 48.1273 175.279 48.622C175.279 49.1073 175.284 49.5833 175.293 50.05C175.312 50.5073 175.331 50.9367 175.349 51.338C175.377 51.73 175.41 52.0707 175.447 52.36C175.457 52.4533 175.429 52.5 175.363 52.5H174.369C174.323 52.5 174.281 52.4953 174.243 52.486C174.206 52.4673 174.183 52.43 174.173 52.374C174.136 52.0567 174.103 51.66 174.075 51.184C174.047 50.6987 174.024 50.1667 174.005 49.588C173.996 49.0093 173.987 48.4167 173.977 47.81C173.977 47.2033 173.987 46.6107 174.005 46.032C174.024 45.444 174.047 44.9073 174.075 44.422C174.113 43.9367 174.159 43.5307 174.215 43.204C174.225 43.1667 174.248 43.1387 174.285 43.12C174.323 43.092 174.355 43.078 174.383 43.078H175.055C175.111 43.078 175.158 43.1107 175.195 43.176L179.479 49.784ZM183.716 52.08V51.254C183.716 51.198 183.735 51.1747 183.772 51.184C183.809 51.184 183.861 51.198 183.926 51.226C184.113 51.282 184.318 51.338 184.542 51.394C184.775 51.45 185.004 51.4967 185.228 51.534C185.461 51.562 185.657 51.576 185.816 51.576C186.423 51.576 186.875 51.4127 187.174 51.086C187.482 50.75 187.636 50.33 187.636 49.826C187.636 49.3593 187.501 48.9953 187.23 48.734C186.959 48.4727 186.544 48.2673 185.984 48.118C185.723 48.0527 185.447 47.9733 185.158 47.88C184.869 47.7773 184.598 47.6373 184.346 47.46C184.094 47.2827 183.884 47.04 183.716 46.732C183.557 46.424 183.478 46.0227 183.478 45.528C183.478 44.9307 183.613 44.45 183.884 44.086C184.155 43.7127 184.509 43.442 184.948 43.274C185.396 43.106 185.877 43.022 186.39 43.022C186.605 43.022 186.829 43.0407 187.062 43.078C187.305 43.106 187.533 43.1527 187.748 43.218C187.972 43.274 188.168 43.3393 188.336 43.414C188.401 43.4233 188.439 43.442 188.448 43.47C188.467 43.498 188.476 43.5353 188.476 43.582V44.324C188.476 44.492 188.373 44.52 188.168 44.408C187.953 44.296 187.701 44.2027 187.412 44.128C187.132 44.044 186.819 44.002 186.474 44.002C185.961 44.002 185.545 44.1327 185.228 44.394C184.92 44.646 184.766 44.9913 184.766 45.43C184.766 45.7473 184.836 46.0087 184.976 46.214C185.116 46.41 185.298 46.564 185.522 46.676C185.746 46.788 185.984 46.8813 186.236 46.956C186.497 47.0307 186.749 47.1053 186.992 47.18C187.421 47.3107 187.781 47.474 188.07 47.67C188.359 47.8567 188.579 48.1133 188.728 48.44C188.887 48.7667 188.966 49.196 188.966 49.728C188.966 50.3627 188.835 50.8947 188.574 51.324C188.322 51.744 187.958 52.066 187.482 52.29C187.015 52.514 186.465 52.626 185.83 52.626C185.559 52.626 185.247 52.5933 184.892 52.528C184.537 52.4627 184.211 52.3833 183.912 52.29C183.837 52.2713 183.786 52.248 183.758 52.22C183.73 52.1827 183.716 52.136 183.716 52.08Z" fill="white"/>
</svg>
